{
  "accessors": [
    {
      "bufferView": 2,
      "componentType": 5126,
      "count": 3165,
      "max": [
        77.03150177001953,
        74.05159759521484,
        0.9689440131187439
      ],
      "min": [
        75.98159790039063,
        73.19950103759766,
        0.7949429750442505
      ],
      "type": "VEC3"
    },
    {
      "bufferView": 2,
      "byteOffset": 37980,
      "componentType": 5126,
      "count": 3165,
      "max": [
        0.9999690055847168,
        0.999721109867096,
        0.9998760223388672
      ],
      "min": [
        -0.9998760223388672,
        -1.0,
        -1.0
      ],
      "type": "VEC3"
    },
    {
      "bufferView": 1,
      "componentType": 5126,
      "count": 3165,
      "max": [
        44.05270004272461,
        -24.93470001220703
      ],
      "min": [
        43.94770050048828,
        -25.06399917602539
      ],
      "type": "VEC2"
    },
    {
      "bufferView": 0,
      "componentType": 5125,
      "count": 15480,
      "type": "SCALAR"
    },
    {
      "bufferView": 2,
      "byteOffset": 75960,
      "componentType": 5126,
      "count": 106,
      "max": [
        72.77940368652344,
        73.99870300292969,
        0.7306349873542786
      ],
      "min": [
        72.4574966430664,
        73.95390319824219,
        0.6041920185089111
      ],
      "type": "VEC3"
    },
    {
      "bufferView": 2,
      "byteOffset": 77232,
      "componentType": 5126,
      "count": 106,
      "max": [
        0.9658427238464355,
        1.0,
        0.9658427238464355
      ],
      "min": [
        -0.9658427238464355,
        -1.0,
        -0.9658427238464355
      ],
      "type": "VEC3"
    },
    {
      "bufferView": 1,
      "byteOffset": 25320,
      "componentType": 5126,
      "count": 106,
      "max": [
        8.040160179138184,
        -6.75
      ],
      "min": [
        4.0,
        -14.505599975585938
      ],
      "type": "VEC2"
    },
    {
      "bufferView": 0,
      "byteOffset": 61920,
      "componentType": 5125,
      "count": 288,
      "type": "SCALAR"
    },
    {
      "bufferView": 2,
      "byteOffset": 78504,
      "componentType": 5126,
      "count": 24,
      "max": [
        72.8917007446289,
        74.17559814453125,
        0.9529150128364563
      ],
      "min": [
        72.69619750976563,
        73.9802017211914,
        0.8632640242576599
      ],
      "type": "VEC3"
    },
    {
      "bufferView": 2,
      "byteOffset": 78792,
      "componentType": 5126,
      "count": 24,
      "max": [
        0.7071068286895752,
        0.7071068286895752,
        1.0
      ],
      "min": [
        -0.7071068286895752,
        -0.7071068286895752,
        -1.0
      ],
      "type": "VEC3"
    },
    {
      "bufferView": 1,
      "byteOffset": 26168,
      "componentType": 5126,
      "count": 24,
      "max": [
        7.280819892883301,
        -0.5
      ],
      "min": [
        7.25,
        -0.5112059712409973
      ],
      "type": "VEC2"
    },
    {
      "bufferView": 0,
      "byteOffset": 63072,
      "componentType": 5125,
      "count": 36,
      "type": "SCALAR"
    },
    {
      "bufferView": 2,
      "byteOffset": 79080,
      "componentType": 5126,
      "count": 4878,
      "max": [
        76.92330169677734,
        73.6541976928711,
        0.8619930148124695
      ],
      "min": [
        76.69380187988281,
        73.41000366210938,
        0.7841479778289795
      ],
      "type": "VEC3"
    },
    {
      "bufferView": 2,
      "byteOffset": 137616,
      "componentType": 5126,
      "count": 4878,
      "max": [
        0.996269941329956,
        1.0,
        0.996269941329956
      ],
      "min": [
        -0.996269941329956,
        -1.0,
        -0.996269941329956
      ],
      "type": "VEC3"
    },
    {
      "bufferView": 1,
      "byteOffset": 26360,
      "componentType": 5126,
      "count": 4878,
      "max": [
        48.0099983215332,
        -8.985919952392578
      ],
      "min": [
        3.9900500774383545,
        -21.01409912109375
      ],
      "type": "VEC2"
    },
    {
      "bufferView": 0,
      "byteOffset": 63216,
      "componentType": 5125,
      "count": 21600,
      "type": "SCALAR"
    },
    {
      "bufferView": 2,
      "byteOffset": 196152,
      "componentType": 5126,
      "count": 1026,
      "max": [
        80.46440124511719,
        74.36170196533203,
        1.020169973373413
      ],
      "min": [
        71.66739654541016,
        73.83419799804688,
        0.7362899780273438
      ],
      "type": "VEC3"
    },
    {
      "bufferView": 2,
      "byteOffset": 208464,
      "componentType": 5126,
      "count": 1026,
      "max": [
        1.0,
        1.0,
        1.0
      ],
      "min": [
        -1.0,
        -1.0,
        -1.0
      ],
      "type": "VEC3"
    },
    {
      "bufferView": 1,
      "byteOffset": 65384,
      "componentType": 5126,
      "count": 1026,
      "max": [
        15.238699913024902,
        0.5
      ],
      "min": [
        0.25,
        -14.006500244140625
      ],
      "type": "VEC2"
    },
    {
      "bufferView": 0,
      "byteOffset": 149616,
      "componentType": 5125,
      "count": 2700,
      "type": "SCALAR"
    },
    {
      "bufferView": 2,
      "byteOffset": 220776,
      "componentType": 5126,
      "count": 472,
      "max": [
        72.95249938964844,
        74.3561019897461,
        1.0351099967956543
      ],
      "min": [
        71.7343978881836,
        73.81929779052734,
        0.6839590072631836
      ],
      "type": "VEC3"
    },
    {
      "bufferView": 2,
      "byteOffset": 226440,
      "componentType": 5126,
      "count": 472,
      "max": [
        1.0,
        1.0,
        1.0
      ],
      "min": [
        -1.0,
        -1.0,
        -1.0
      ],
      "type": "VEC3"
    },
    {
      "bufferView": 1,
      "byteOffset": 73592,
      "componentType": 5126,
      "count": 472,
      "max": [
        13.10890007019043,
        -0.75
      ],
      "min": [
        3.25,
        -9.519539833068848
      ],
      "type": "VEC2"
    },
    {
      "bufferView": 0,
      "byteOffset": 160416,
      "componentType": 5125,
      "count": 1224,
      "type": "SCALAR"
    },
    {
      "bufferView": 2,
      "byteOffset": 232104,
      "componentType": 5126,
      "count": 2886,
      "max": [
        79.1592025756836,
        74.3561019897461,
        1.0799000263214111
      ],
      "min": [
        72.4894027709961,
        73.81939697265625,
        0.5420330166816711
      ],
      "type": "VEC3"
    },
    {
      "bufferView": 2,
      "byteOffset": 266736,
      "componentType": 5126,
      "count": 2886,
      "max": [
        1.0,
        1.0,
        1.0
      ],
      "min": [
        -1.0,
        -1.0,
        -1.0
      ],
      "type": "VEC3"
    },
    {
      "bufferView": 1,
      "byteOffset": 77368,
      "componentType": 5126,
      "count": 2886,
      "max": [
        15.519499778747559,
        1.0
      ],
      "min": [
        0.0,
        -14.519499778747559
      ],
      "type": "VEC2"
    },
    {
      "bufferView": 0,
      "byteOffset": 165312,
      "componentType": 5125,
      "count": 6996,
      "type": "SCALAR"
    }
  ],
  "asset": {
    "extras": {
      "author": "jovannichan2012 (https://sketchfab.com/jovannichan2012)",
      "license": "CC-BY-4.0 (http://creativecommons.org/licenses/by/4.0/)",
      "source": "https://sketchfab.com/3d-models/handy-fishing-rod-aaa0fbae10584a6ba07f9019ac19aae0",
      "title": "Handy fishing rod"
    },
    "generator": "Sketchfab-15.30.0",
    "version": "2.0"
  },
  "bufferViews": [
    {
      "buffer": 0,
      "byteLength": 193296,
      "name": "floatBufferViews",
      "target": 34963
    },
    {
      "buffer": 0,
      "byteLength": 100456,
      "byteOffset": 193296,
      "byteStride": 8,
      "name": "floatBufferViews",
      "target": 34962
    },
    {
      "buffer": 0,
      "byteLength": 301368,
      "byteOffset": 293752,
      "byteStride": 12,
      "name": "floatBufferViews",
      "target": 34962
    }
  ],
  "buffers": [
    {
      "byteLength": 595120,
      "uri": "scene.bin"
    }
  ],
  "materials": [
    {
      "doubleSided": true,
      "name": "Cylinder1Mtl",
      "pbrMetallicRoughness": {
        "baseColorFactor": [
          0.0,
          0.0,
          0.0,
          1.0
        ],
        "metallicFactor": 0.0,
        "roughnessFactor": 0.6
      }
    },
    {
      "doubleSided": true,
      "name": "Meshpart1Mtl",
      "pbrMetallicRoughness": {
        "metallicFactor": 0.0,
        "roughnessFactor": 0.6
      }
    },
    {
      "doubleSided": true,
      "name": "Plastic1Mtl",
      "pbrMetallicRoughness": {
        "metallicFactor": 0.0,
        "roughnessFactor": 0.6
      }
    },
    {
      "doubleSided": true,
      "name": "Plastic2Mtl",
      "pbrMetallicRoughness": {
        "baseColorFactor": [
          1.0,
          0.0,
          0.0,
          1.0
        ],
        "metallicFactor": 0.0,
        "roughnessFactor": 0.6
      }
    },
    {
      "doubleSided": true,
      "name": "Plastic33Mtl",
      "pbrMetallicRoughness": {
        "baseColorFactor": [
          1.0,
          1.0,
          0.0,
          1.0
        ],
        "metallicFactor": 0.0,
        "roughnessFactor": 0.6
      }
    },
    {
      "doubleSided": true,
      "name": "Plastic34Mtl",
      "pbrMetallicRoughness": {
        "metallicFactor": 0.0,
        "roughnessFactor": 0.6
      }
    },
    {
      "doubleSided": true,
      "name": "Plastic4Mtl",
      "pbrMetallicRoughness": {
        "baseColorFactor": [
          0.0,
          0.2903871412049433,
          1.0,
          1.0
        ],
        "metallicFactor": 0.0,
        "roughnessFactor": 0.6
      }
    }
  ],
  "meshes": [
    {
      "name": "Object_0",
      "primitives": [
        {
          "attributes": {
            "NORMAL": 1,
            "POSITION": 0,
            "TEXCOORD_0": 2
          },
          "indices": 3,
          "material": 1,
          "mode": 4
        }
      ]
    },
    {
      "name": "Object_1",
      "primitives": [
        {
          "attributes": {
            "NORMAL": 5,
            "POSITION": 4,
            "TEXCOORD_0": 6
          },
          "indices": 7,
          "material": 2,
          "mode": 4
        }
      ]
    },
    {
      "name": "Object_2",
      "primitives": [
        {
          "attributes": {
            "NORMAL": 9,
            "POSITION": 8,
            "TEXCOORD_0": 10
          },
          "indices": 11,
          "material": 5,
          "mode": 4
        }
      ]
    },
    {
      "name": "Object_3",
      "primitives": [
        {
          "attributes": {
            "NORMAL": 13,
            "POSITION": 12,
            "TEXCOORD_0": 14
          },
          "indices": 15,
          "material": 0,
          "mode": 4
        }
      ]
    },
    {
      "name": "Object_4",
      "primitives": [
        {
          "attributes": {
            "NORMAL": 17,
            "POSITION": 16,
            "TEXCOORD_0": 18
          },
          "indices": 19,
          "material": 4,
          "mode": 4
        }
      ]
    },
    {
      "name": "Object_5",
      "primitives": [
        {
          "attributes": {
            "NORMAL": 21,
            "POSITION": 20,
            "TEXCOORD_0": 22
          },
          "indices": 23,
          "material": 3,
          "mode": 4
        }
      ]
    },
    {
      "name": "Object_6",
      "primitives": [
        {
          "attributes": {
            "NORMAL": 25,
            "POSITION": 24,
            "TEXCOORD_0": 26
          },
          "indices": 27,
          "material": 6,
          "mode": 4
        }
      ]
    }
  ],
  "nodes": [
    {
      "children": [
        1
      ],
      "matrix": [
        1.0,
        0.0,
        0.0,
        0.0,
        0.0,
        2.220446049250313e-16,
        -1.0,
        0.0,
        0.0,
        1.0,
        2.220446049250313e-16,
        0.0,
        0.0,
        0.0,
        0.0,
        1.0
      ],
      "name": "Sketchfab_model"
    },
    {
      "children": [
        2,
        3,
        4,
        5,
        6,
        7,
        8
      ],
      "name": "Handy fishing rod.obj.cleaner.materialmerger.gles"
    },
    {
      "mesh": 0,
      "name": "Object_2"
    },
    {
      "mesh": 1,
      "name": "Object_3"
    },
    {
      "mesh": 2,
      "name": "Object_4"
    },
    {
      "mesh": 3,
      "name": "Object_5"
    },
    {
      "mesh": 4,
      "name": "Object_6"
    },
    {
      "mesh": 5,
      "name": "Object_7"
    },
    {
      "mesh": 6,
      "name": "Object_8"
    }
  ],
  "scene": 0,
  "scenes": [
    {
      "name": "Sketchfab_Scene",
      "nodes": [
        0
      ]
    }
  ]
}
